<svg version="1.1" xmlns="http://www.w3.org/2000/svg" viewBox="0 0 656 533" width="656" height="533">
  <!-- svg-source:excalidraw -->
  
  <defs>
    <style>
      @font-face {
        font-family: "Virgil";
        src: url("https://excalidraw.com/FG_Virgil.woff2");
      }
      @font-face {
        font-family: "Cascadia";
        src: url("https://excalidraw.com/Cascadia.woff2");
      }
    </style>
  </defs>
  <g transform="translate(10 177) rotate(0 86 69)"><path d="M1.9670023955404758 1.1726351343095303 C57.583119900524615 -0.20207548074424264, 113.45119434520602 -2.56102120809257, 170.15688622370362 -0.9450956024229527 M172.4541203342378 0.8426539935171604 C171.7914544334635 37.213028484210376, 171.9331610193476 74.03384624272586, 171.3813152872026 137.4702285565436 M172.04996693506837 137.95392268523574 C125.33912394046783 139.07593824766576, 79.72655136212707 141.13144030474126, 1.7919786013662815 138.59906655177474 M-0.6329049505293369 139.04513299837708 C2.4798092836514116 85.92262231297791, -0.6819318538531661 33.479680871963495, -1.2215219177305698 -0.08449077233672142" stroke="#000000" stroke-width="1.5" fill="none" stroke-dasharray="12 8"></path></g><g transform="translate(472 10) rotate(0 86 69)"><path d="M0.16256797686219215 -0.6811888851225376 C37.73713482171297 -0.09521077327430238, 77.43218887969851 2.073656457141042, 172.01065111532807 -1.860011998564005 M173.0431941114366 0.022953156381845474 C170.60057817485185 36.31259939037264, 169.2262744763121 74.2884066656232, 173.9028269611299 137.360240701586 M170.69197035208344 138.10086541995406 C136.93609278202058 140.98639994286, 100.79935965165495 140.60377257488668, -1.1291321478784084 137.66208976134658 M0.3030049167573452 136.35033679381013 C0.4809418231621385 89.58017339892686, 0.38802926842123275 46.12764077186584, -1.723657552152872 1.3263000287115574" stroke="#000000" stroke-width="1.5" fill="none" stroke-dasharray="12 8"></path></g><g transform="translate(474 385) rotate(0 86 69)"><path d="M-1.668673750013113 -0.5505868829786777 C45.666810639202595 2.204102788642049, 94.10312892124057 -1.2741895573586226, 171.36081731691957 -1.987294975668192 M171.9718117080629 -0.677040096372366 C171.3173119464144 36.77031138502062, 174.62263089802116 72.28260808736087, 170.17890625819564 139.9839893616736 M172.87468660250306 139.99698942527175 C111.18244211673736 139.70110631845893, 47.88265750035643 137.74883402250708, 0.7348699606955051 138.90787273272872 M1.107374008744955 136.05077612772584 C0.8053880614414812 98.18854354806244, -1.9327309447154402 57.56569466590881, 1.828685935586691 0.4987967051565647" stroke="#000000" stroke-width="1.5" fill="none" stroke-dasharray="12 8"></path></g><g transform="translate(545 53.5) rotate(0 13 22.5)"><text x="13" y="32" font-family="Virgil, Segoe UI Emoji" font-size="36px" fill="#000000" text-anchor="middle" style="white-space: pre;" direction="ltr">B</text></g><g transform="translate(85 219.5) rotate(0 12 22.5)"><text x="12" y="32" font-family="Virgil, Segoe UI Emoji" font-size="36px" fill="#000000" text-anchor="middle" style="white-space: pre;" direction="ltr">A</text></g><g transform="translate(544.5 431.5) rotate(0 14.5 22.5)"><text x="14.5" y="32" font-family="Virgil, Segoe UI Emoji" font-size="36px" fill="#000000" text-anchor="middle" style="white-space: pre;" direction="ltr">C</text></g><g><g transform="translate(199 246) rotate(0 128.57973780408508 -86.97645901218058)"><path d="M0.830326185375452 0.6752942584455013 C43.42489891226093 -28.537939585993687, 213.90672101353604 -145.43662226771315, 256.32914942279456 -174.62821228280663" stroke="#364fc7" stroke-width="1.5" fill="none" stroke-dasharray="12 8"></path></g><g transform="translate(199 246) rotate(0 128.57973780408508 -86.97645901218058)"><path d="M240.02429875460632 -149.66276669822486 C245.72146641983943 -160.2654078397652, 252.3135893740988 -166.28278491285096, 254.91185003668068 -173.08687938600778" stroke="#364fc7" stroke-width="1.5" fill="none"></path></g><g transform="translate(199 246) rotate(0 128.57973780408508 -86.97645901218058)"><path d="M228.40736677213988 -166.57923481957297 C238.41881016869166 -171.1135263213511, 249.2334101198067 -170.98217173118493, 254.91185003668068 -173.08687938600778" stroke="#364fc7" stroke-width="1.5" fill="none"></path></g></g><g><g transform="translate(201 244) rotate(0 129.30890142694125 106.28077987655996)"><path d="M0.08386534228920928 -0.5360623575747013 C43.21351014152168 35.04804139360786, 215.36176417842503 177.4186567567289, 258.5339375115931 213.09762211069466" stroke="#364fc7" stroke-width="1.5" fill="none" stroke-dasharray="12 8"></path></g><g transform="translate(201 244) rotate(0 129.30890142694125 106.28077987655996)"><path d="M229.37558966280722 203.93292550237433 C238.30254376597523 207.6967767662393, 246.94097170721355 209.90316846275977, 258.5010727062821 214.6806049451232" stroke="#364fc7" stroke-width="1.5" fill="none"></path></g><g transform="translate(201 244) rotate(0 129.30890142694125 106.28077987655996)"><path d="M242.45129001354763 188.11691896711116 C247.6676890348461 196.31320894403794, 252.64920456862592 202.94290103624036, 258.5010727062821 214.6806049451232" stroke="#364fc7" stroke-width="1.5" fill="none"></path></g></g><g transform="translate(229.3317511005596 125.107426738725) rotate(324.0714975771772 87 12.5)"><text x="0" y="18" font-family="Virgil, Segoe UI Emoji" font-size="20px" fill="#364fc7" text-anchor="start" style="white-space: pre;" direction="ltr">visible relationship</text></g><g transform="translate(253.56720199918618 318.0858516243387) rotate(39.093858886229754 87 12.5)"><text x="0" y="18" font-family="Virgil, Segoe UI Emoji" font-size="20px" fill="#364fc7" text-anchor="start" style="white-space: pre;" direction="ltr">visible relationship</text></g></svg>