<svg version="1.1" xmlns="http://www.w3.org/2000/svg" viewBox="0 0 1455 363.95801541022956" width="1455" height="363.95801541022956">
  <!-- svg-source:excalidraw -->
  
  <defs>
    <style>
      @font-face {
        font-family: "Virgil";
        src: url("https://excalidraw.com/Virgil.woff2");
      }
      @font-face {
        font-family: "Cascadia";
        src: url("https://excalidraw.com/Cascadia.woff2");
      }
    </style>
  </defs>
  <g stroke-linecap="round" transform="translate(646.5 65) rotate(0 94 69.5)"><path d="M-1.99 -1.88 C46.72 -1.2, 90.97 0.99, 186.26 0.31 M0.07 -0.9 C68.72 1.48, 139.22 2.52, 187.13 -0.92 M189.49 -1.04 C188.02 31.24, 188.8 66.85, 188.3 140.8 M188.52 0.47 C187.35 50.74, 185.97 100.33, 188.16 139.03 M188.83 139.24 C138.06 137.22, 89.79 140.39, -1.4 140.43 M188.21 138.98 C134.44 140.15, 81.76 138.68, -0.31 138.86 M0.65 140.05 C2.4 109.06, 0.31 78.25, 0.84 0.25 M0.12 138.66 C-2.08 94.25, -1.36 49.53, -0.89 0.43" stroke="#000000" stroke-width="1" fill="none"></path></g><g transform="translate(682.5 114) rotate(0 62 17.5)"><text x="0" y="25" font-family="Virgil, Segoe UI Emoji" font-size="28px" fill="#000000" text-anchor="start" style="white-space: pre;" direction="ltr">2. Coding</text></g><g stroke-linecap="round" transform="translate(919.5 10) rotate(0 158.5 136)"><path d="M157.83 1.32 C221.59 54.08, 285.14 108.27, 318.43 138.41 M158.69 -0.48 C218.14 50.9, 275.9 100.43, 317.42 136.93 M318.31 135.56 C257.67 187.53, 196.63 239.9, 158.64 273.69 M317.67 136.13 C279.5 169.8, 241.57 202.71, 159.1 271.26 M159.53 272.85 C95.95 219.48, 35.31 169.2, -0.89 137.85 M159.29 272.4 C101.38 222.29, 43.32 174.75, -0.58 137.59 M-0.2 137.6 C48.48 95.43, 100.29 53.11, 158.66 -1.26 M-0.21 137.48 C45.08 98.16, 90.62 59.52, 158.9 -0.1" stroke="#000000" stroke-width="1" fill="none"></path></g><g transform="translate(978.5 97) rotate(0 104 52.5)"><text x="104" y="25" font-family="Virgil, Segoe UI Emoji" font-size="28px" fill="#000000" text-anchor="middle" style="white-space: pre;" direction="ltr">3. Request for</text><text x="104" y="60" font-family="Virgil, Segoe UI Emoji" font-size="28px" fill="#000000" text-anchor="middle" style="white-space: pre;" direction="ltr">feedback.</text><text x="104" y="95" font-family="Virgil, Segoe UI Emoji" font-size="28px" fill="#000000" text-anchor="middle" style="white-space: pre;" direction="ltr">Good enough ?</text></g><g transform="translate(1250.5 93.5) rotate(0 22.5 17.5)"><text x="0" y="25" font-family="Virgil, Segoe UI Emoji" font-size="28px" fill="#000000" text-anchor="start" style="white-space: pre;" direction="ltr">Yes</text></g><g transform="translate(710.5 301.5) rotate(0 17 17.5)"><text x="0" y="25" font-family="Virgil, Segoe UI Emoji" font-size="28px" fill="#000000" text-anchor="start" style="white-space: pre;" direction="ltr">No</text></g><g transform="translate(1340 125.5) rotate(0 52.5 17.5)"><text x="52.5" y="25" font-family="Virgil, Segoe UI Emoji" font-size="28px" fill="#000000" text-anchor="middle" style="white-space: pre;" direction="ltr">4. Done</text></g><g stroke-linecap="round" transform="translate(297.5 64) rotate(0 122.00000000000006 70.5)"><path d="M1.44 1.43 C88.35 0.06, 175.04 -0.44, 243.48 1.31 M-0.8 -0.6 C74.62 -0.75, 151.28 -1.19, 244.74 0.08 M242.58 0.46 C242.95 43.79, 243.41 87.95, 245.05 142.89 M243.17 -0.62 C244.12 46.78, 245.41 91.25, 243.15 141.32 M243.37 140.88 C163.1 143.13, 85.23 143.01, 0.79 142.63 M244.24 140.4 C170.9 142.57, 97.06 143.33, 0.36 140.25 M-0.19 140.36 C-1.13 101.04, -0.48 63.63, -1.05 1.97 M0.71 140.64 C-0.01 107.39, 0.41 72.44, -0.5 -0.33" stroke="#000000" stroke-width="1" fill="none"></path></g><g stroke-linecap="round"><g transform="translate(559.4047619047619 136.11769100823926) rotate(0 34.213214479251974 0.5233870912703082)"><path d="M-0.24 -0.88 C11.04 -0.4, 56.37 1.74, 68.11 1.93 M-1.83 1.27 C9.77 1.5, 58.29 0.29, 70.26 0.27" stroke="#000000" stroke-width="1" fill="none"></path></g><g transform="translate(559.4047619047619 136.11769100823926) rotate(0 34.213214479251974 0.5233870912703082)"><path d="M40.75 9.13 C53.16 9.12, 59.75 3.64, 69.6 -1.12 M41.6 10.55 C51.85 6.05, 63.24 2.41, 70.8 0.1" stroke="#000000" stroke-width="1" fill="none"></path></g><g transform="translate(559.4047619047619 136.11769100823926) rotate(0 34.213214479251974 0.5233870912703082)"><path d="M40.45 -11.38 C52.8 -4.53, 59.49 -3.14, 69.6 -1.12 M41.3 -9.97 C51.53 -6.74, 63.03 -2.65, 70.8 0.1" stroke="#000000" stroke-width="1" fill="none"></path></g></g><g transform="translate(309.5 84) rotate(0 113.5 52.5)"><text x="113.5" y="25" font-family="Virgil, Segoe UI Emoji" font-size="28px" fill="#000000" text-anchor="middle" style="white-space: pre;" direction="ltr">1. Interpretation</text><text x="113.5" y="60" font-family="Virgil, Segoe UI Emoji" font-size="28px" fill="#000000" text-anchor="middle" style="white-space: pre;" direction="ltr">by the</text><text x="113.5" y="95" font-family="Virgil, Segoe UI Emoji" font-size="28px" fill="#000000" text-anchor="middle" style="white-space: pre;" direction="ltr">developer</text></g><g transform="translate(10 100) rotate(0 90.5 37.5)"><text x="90.5" y="18" font-family="Virgil, Segoe UI Emoji" font-size="20px" fill="#000000" text-anchor="middle" style="white-space: pre;" direction="ltr">0. Requirements</text><text x="90.5" y="43" font-family="Virgil, Segoe UI Emoji" font-size="20px" fill="#000000" text-anchor="middle" style="white-space: pre;" direction="ltr"> + </text><text x="90.5" y="68" font-family="Virgil, Segoe UI Emoji" font-size="20px" fill="#000000" text-anchor="middle" style="white-space: pre;" direction="ltr">existing code base</text></g><g stroke-linecap="round"><g transform="translate(209 138.0616917107634) rotate(0 33.03007861264041 0.13492431465100196)"><path d="M-1.09 -1.04 C9.93 -1.06, 55.74 -0.34, 67.15 -0.23 M0.54 1.04 C11.28 1.22, 55.01 1.32, 66.01 1.3" stroke="#000000" stroke-width="1" fill="none"></path></g><g transform="translate(209 138.0616917107634) rotate(0 33.03007861264041 0.13492431465100196)"><path d="M36.09 10.96 C48.71 7.63, 59.42 4.69, 66.64 1.42 M38.4 12.38 C48.81 7.05, 59.93 4.45, 66.16 2.13" stroke="#000000" stroke-width="1" fill="none"></path></g><g transform="translate(209 138.0616917107634) rotate(0 33.03007861264041 0.13492431465100196)"><path d="M36.11 -9.57 C48.7 -4.95, 59.41 0.06, 66.64 1.42 M38.41 -8.14 C48.67 -5.71, 59.79 -0.56, 66.16 2.13" stroke="#000000" stroke-width="1" fill="none"></path></g></g><g stroke-linecap="round"><g transform="translate(843.5 138.15169726996876) rotate(0 34.84986412941066 -0.14176322840206979)"><path d="M-0.74 0.38 C11.17 0.39, 58.6 0.93, 70.44 0.8 M1.07 -0.46 C12.92 -0.88, 58.08 -1.23, 69.47 -1.06" stroke="#000000" stroke-width="1" fill="none"></path></g><g transform="translate(843.5 138.15169726996876) rotate(0 34.84986412941066 -0.14176322840206979)"><path d="M41.9 9.09 C48.05 6.81, 52.09 3.52, 67.73 -0.06 M41.97 10.04 C51.44 5.17, 61.9 2.57, 68.86 -1.73" stroke="#000000" stroke-width="1" fill="none"></path></g><g transform="translate(843.5 138.15169726996876) rotate(0 34.84986412941066 -0.14176322840206979)"><path d="M41.94 -11.43 C48.2 -9.34, 52.24 -8.25, 67.73 -0.06 M42 -10.48 C51.28 -8.24, 61.73 -3.72, 68.86 -1.73" stroke="#000000" stroke-width="1" fill="none"></path></g></g><g stroke-linecap="round"><g transform="translate(1244.5 146) rotate(0 43.546876018168405 0.4009404965799206)"><path d="M0.19 0.86 C14.82 1, 73.49 -0.27, 88.26 -0.08 M-1.17 0.26 C13.28 0.6, 72.51 0.91, 87.45 0.9" stroke="#000000" stroke-width="1" fill="none"></path></g><g transform="translate(1244.5 146) rotate(0 43.546876018168405 0.4009404965799206)"><path d="M60.66 11.51 C67.17 8.93, 80.29 4.76, 86.04 -0.8 M59.5 10.42 C69.22 6.66, 79.59 4.4, 87.79 0.36" stroke="#000000" stroke-width="1" fill="none"></path></g><g transform="translate(1244.5 146) rotate(0 43.546876018168405 0.4009404965799206)"><path d="M60.72 -9.01 C67.05 -4.57, 80.15 -1.72, 86.04 -0.8 M59.56 -10.1 C69.22 -6.11, 79.57 -0.62, 87.79 0.36" stroke="#000000" stroke-width="1" fill="none"></path></g></g><g stroke-linecap="round"><g transform="translate(1079.5 295) rotate(0 -336.71567214175366 -8.958594651892781)"><path d="M-0.26 -0.16 C-0.98 15.84, -1.84 30.34, 0.66 58.96 M0.21 0 C0.82 15.8, 0.03 29.7, 1.8 56.06 M0.71 57.52 C-164.92 54.79, -329.8 55.17, -674.45 57.48 M1.33 56.82 C-186.34 59.02, -374.1 59.25, -673.7 57.28 M-674.74 55.01 C-673.68 27.11, -676.56 -3.77, -674.42 -76.88 M-674.71 56.06 C-674.77 4.01, -673.85 -48.68, -673.93 -75.88" stroke="#000000" stroke-width="1" fill="none"></path></g><g transform="translate(1079.5 295) rotate(0 -336.71567214175366 -8.958594651892781)"><path d="M-664.06 -47.8 C-667.18 -55.1, -671.09 -63.98, -674.27 -73.92 M-663.59 -47.64 C-666.26 -54.67, -670.03 -63.62, -673.13 -76.82" stroke="#000000" stroke-width="1" fill="none"></path></g><g transform="translate(1079.5 295) rotate(0 -336.71567214175366 -8.958594651892781)"><path d="M-684.58 -47.89 C-682.07 -55.34, -680.35 -64.2, -674.27 -73.92 M-684.11 -47.74 C-681.28 -54.78, -679.55 -63.71, -673.13 -76.82" stroke="#000000" stroke-width="1" fill="none"></path></g></g></svg>